<?xml version="1.0" encoding="utf-8"?>
<svg viewBox="0 0 500 500" xmlns="http://www.w3.org/2000/svg">
  <g style="" transform="matrix(0.819823, 0, 0, 0.819823, 44.477749, 45.00898)">
    <title>icon</title>
    <path d="M 35.118 91.504 L 35.118 352.593 C 35.118 373.359 51.99 392.827 72.756 395.422 L 79.895 396.288 C 127.051 402.561 199.732 426.571 241.264 449.5 C 244.076 451.231 247.537 451.88 251.43 451.88 L 251.43 105.131 C 247.32 105.131 243.21 104.05 239.966 102.103 L 236.288 99.724 C 197.785 75.497 128.781 52.351 83.356 48.458 L 82.058 48.458 C 56.317 46.295 35.118 65.546 35.118 91.504 Z" style="fill: rgb(255, 221, 186);">
      <title>left_wing</title>
    </path>
    <path d="M 249.952 408.582 L 249.952 147.493 C 249.952 126.727 266.824 107.259 287.59 104.664 L 294.729 103.798 C 341.885 97.525 414.566 73.515 456.098 50.586 C 458.91 48.855 462.371 48.206 466.264 48.206 L 466.264 394.955 C 462.154 394.955 458.044 396.036 454.8 397.983 L 451.122 400.362 C 412.619 424.589 343.615 447.735 298.19 451.628 L 296.892 451.628 C 271.151 453.791 249.952 434.54 249.952 408.582 Z" style="stroke-width: 0px; fill: rgb(255, 221, 186);" transform="matrix(-1, 0, 0, -1, 716.216003, 499.999802)">
      <title>right_wing</title>
    </path>
    <path d="M 401.419 49.642 L 401.419 142.44 C 401.419 151.093 391.901 156.284 384.546 151.525 L 358.156 134.004 L 331.766 151.525 C 324.628 156.284 314.894 151.093 314.894 142.44 L 314.894 74.302 C 343.231 63.054 374.812 53.969 401.419 49.642 Z" style="fill: rgb(43, 23, 0); stroke-width: 0px;">
      <title>bookmark</title>
    </path>
  </g>
</svg>